<?xml version="1.0" encoding="utf-8"?>
<!-- Generator: Adobe Illustrator 16.0.0, SVG Export Plug-In . SVG Version: 6.00 Build 0)  -->
<!DOCTYPE svg PUBLIC "-//W3C//DTD SVG 1.1//EN" "http://www.w3.org/Graphics/SVG/1.1/DTD/svg11.dtd">
<svg version="1.1" id="Layer_1" xmlns="http://www.w3.org/2000/svg" xmlns:xlink="http://www.w3.org/1999/xlink" x="0px" y="0px"
	 width="44px" height="44px" viewBox="0 0 44 44" enable-background="new 0 0 44 44" xml:space="preserve">
<circle fill="#FFFFFF" cx="22" cy="22" r="22"/>
<g>
	<path d="M97.204,26.998v0.994c0,0.146-0.047,0.268-0.138,0.361c-0.092,0.09-0.212,0.135-0.358,0.135H82.801
		c-0.146,0-0.266-0.045-0.358-0.135c-0.092-0.094-0.138-0.215-0.138-0.361v-0.994c0-0.625,0.17-1.15,0.51-1.586
		c0.341-0.432,0.755-0.762,1.242-0.992c0.486-0.229,0.975-0.455,1.463-0.676c0.486-0.221,0.9-0.52,1.241-0.897
		c0.34-0.377,0.511-0.85,0.511-1.421c-0.148-0.166-0.331-0.409-0.553-0.731c-0.22-0.321-0.515-1.033-0.883-2.139
		c-0.368-1.103-0.551-2.261-0.551-3.476c0-1.232,0.436-2.285,1.311-3.159c0.873-0.873,1.926-1.311,3.158-1.311
		s2.285,0.438,3.16,1.311c0.873,0.874,1.311,1.927,1.311,3.159c0,1.214-0.166,2.35-0.497,3.407
		c-0.331,1.058-0.663,1.817-0.993,2.276l-0.496,0.662c0,0.571,0.17,1.044,0.51,1.421c0.34,0.377,0.755,0.676,1.241,0.897
		c0.487,0.221,0.975,0.447,1.463,0.676c0.486,0.23,0.901,0.557,1.241,0.98S97.204,26.355,97.204,26.998z M106.144,21.041v0.993
		c0,0.146-0.046,0.266-0.138,0.358c-0.094,0.093-0.212,0.138-0.358,0.138H96.1c-0.35-0.11-0.661-0.234-0.938-0.372
		c-0.275-0.138-0.46-0.252-0.552-0.346l-0.165-0.109c0.129-0.203,0.289-0.488,0.482-0.855c0.192-0.367,0.455-1.126,0.786-2.277
		c0.331-1.149,0.496-2.312,0.496-3.489c0-0.534-0.064-1.058-0.193-1.572c-0.129-0.515-0.284-0.943-0.469-1.284
		c-0.184-0.34-0.372-0.644-0.565-0.911c-0.192-0.266-0.354-0.464-0.482-0.593l-0.193-0.193V10.5
		c-0.055-0.442-0.082-0.902-0.082-1.38c0-1.232,0.436-2.285,1.31-3.159c0.874-0.873,1.927-1.311,3.159-1.311
		s2.285,0.438,3.161,1.311c0.872,0.874,1.31,1.927,1.31,3.159c0,1.215-0.165,2.351-0.497,3.408
		c-0.331,1.058-0.661,1.817-0.993,2.277l-0.496,0.661c0,0.571,0.168,1.045,0.51,1.421c0.341,0.378,0.755,0.677,1.241,0.897
		c0.487,0.22,0.974,0.446,1.463,0.675c0.487,0.231,0.9,0.558,1.241,0.98C105.973,19.864,106.144,20.396,106.144,21.041z"/>
</g>
<g>
	<path d="M33.838,29.725c0.33,0.445,0.494,0.961,0.494,1.543c0,0.738-0.252,1.359-0.757,1.863c-0.505,0.506-1.126,0.758-1.862,0.758
		H11.796c-1.048,0-1.824-0.467-2.329-1.398c-0.485-0.932-0.437-1.824,0.146-2.68l7.949-11.703V9.256
		c0-0.155,0.048-0.281,0.146-0.379c0.097-0.097,0.223-0.146,0.378-0.146h7.337c0.155,0,0.282,0.049,0.378,0.146
		c0.099,0.098,0.146,0.224,0.146,0.379v8.852L33.838,29.725z M17.125,29.084c0.408,0.406,0.902,0.611,1.485,0.611
		s1.077-0.205,1.485-0.611c0.407-0.408,0.611-0.902,0.611-1.484s-0.204-1.078-0.611-1.484c-0.408-0.408-0.902-0.613-1.485-0.613
		s-1.077,0.205-1.485,0.613c-0.407,0.406-0.612,0.902-0.612,1.484S16.718,28.676,17.125,29.084z M22.221,23.988
		c0.311,0.311,0.679,0.467,1.105,0.467s0.796-0.156,1.106-0.467s0.466-0.678,0.466-1.105c0-0.427-0.155-0.796-0.466-1.106
		c-0.311-0.31-0.68-0.466-1.106-0.466s-0.795,0.156-1.105,0.466c-0.312,0.311-0.466,0.68-0.466,1.106
		C21.755,23.311,21.909,23.678,22.221,23.988z"/>
</g>
</svg>
