<?xml version="1.0" encoding="utf-8"?>
<!-- Generator: Adobe Illustrator 16.0.0, SVG Export Plug-In . SVG Version: 6.00 Build 0)  -->
<!DOCTYPE svg PUBLIC "-//W3C//DTD SVG 1.1//EN" "http://www.w3.org/Graphics/SVG/1.1/DTD/svg11.dtd">
<svg version="1.1" id="Layer_1" xmlns="http://www.w3.org/2000/svg" xmlns:xlink="http://www.w3.org/1999/xlink" x="0px" y="0px"
	 width="25.017px" height="25.017px" viewBox="0 0 25.017 25.017" enable-background="new 0 0 25.017 25.017" xml:space="preserve">
<g>
	<path fill="#FFFFFF" d="M4.036,20.062c-2.023-2.2-3.035-4.8-3.035-7.8V11.73c4.774-0.071,8.775-0.612,12.006-1.624
		c0.301,0.604,0.639,1.34,1.012,2.209c-0.391,0.106-0.684,0.195-0.879,0.266C9.484,13.877,6.449,16.371,4.036,20.062z M12.208,8.535
		C9.227,9.423,5.57,9.902,1.241,9.973C1.595,8.181,2.345,6.565,3.49,5.128C4.635,3.69,6.032,2.59,7.683,1.827
		C9.422,3.957,10.93,6.193,12.208,8.535z M17.026,22.831c-1.438,0.622-2.946,0.932-4.525,0.932c-2.68,0-5.058-0.825-7.134-2.476
		c2.449-3.851,5.546-6.3,9.291-7.347C15.686,16.655,16.476,19.619,17.026,22.831z M14.098,7.896
		c-1.313-2.431-2.804-4.685-4.472-6.762c0.958-0.248,1.917-0.373,2.875-0.373c2.946,0,5.501,0.985,7.667,2.955
		C18.624,5.51,16.601,6.903,14.098,7.896z M24.001,12.209c-2.893-0.656-5.573-0.772-8.04-0.346c-0.142-0.373-0.497-1.18-1.064-2.422
		c2.644-1.065,4.809-2.556,6.495-4.472C23.096,7.044,23.965,9.458,24.001,12.209z M23.868,13.993
		c-0.23,1.615-0.79,3.105-1.677,4.472c-0.888,1.367-2.006,2.494-3.354,3.381c-0.55-2.999-1.295-5.768-2.236-8.306
		C18.89,13.203,21.312,13.354,23.868,13.993z"/>
</g>
</svg>
