<?xml version="1.0" encoding="utf-8"?>
<!-- Generator: Adobe Illustrator 16.0.0, SVG Export Plug-In . SVG Version: 6.00 Build 0)  -->
<!DOCTYPE svg PUBLIC "-//W3C//DTD SVG 1.1//EN" "http://www.w3.org/Graphics/SVG/1.1/DTD/svg11.dtd">
<svg version="1.1" id="Layer_1" xmlns="http://www.w3.org/2000/svg" xmlns:xlink="http://www.w3.org/1999/xlink" x="0px" y="0px"
	 width="44px" height="44px" viewBox="0 0 44 44" enable-background="new 0 0 44 44" xml:space="preserve">
<circle fill="#FFFFFF" cx="22" cy="22" r="22"/>
<g>
	<path d="M24.537,30.832v0.994c0,0.146-0.047,0.268-0.138,0.36c-0.092,0.091-0.212,0.136-0.358,0.136H10.134
		c-0.147,0-0.267-0.045-0.359-0.136c-0.092-0.093-0.138-0.214-0.138-0.36v-0.994c0-0.625,0.17-1.151,0.51-1.587
		c0.34-0.431,0.754-0.761,1.242-0.991c0.487-0.229,0.975-0.456,1.463-0.677c0.487-0.22,0.901-0.519,1.241-0.896
		c0.34-0.377,0.511-0.85,0.511-1.421c-0.148-0.166-0.331-0.409-0.552-0.731c-0.22-0.321-0.515-1.033-0.883-2.139
		c-0.369-1.103-0.552-2.261-0.552-3.476c0-1.232,0.436-2.285,1.311-3.159c0.874-0.873,1.926-1.311,3.159-1.311
		c1.232,0,2.285,0.438,3.16,1.311c0.873,0.874,1.31,1.927,1.31,3.159c0,1.214-0.166,2.35-0.497,3.407
		c-0.331,1.058-0.663,1.817-0.993,2.276l-0.497,0.662c0,0.571,0.17,1.044,0.51,1.421c0.341,0.378,0.755,0.677,1.242,0.896
		c0.487,0.221,0.975,0.447,1.463,0.677c0.486,0.23,0.901,0.557,1.241,0.98C24.366,29.657,24.537,30.188,24.537,30.832z
		 M33.477,24.874v0.993c0,0.146-0.046,0.266-0.138,0.358c-0.094,0.093-0.212,0.138-0.358,0.138h-9.548
		c-0.35-0.11-0.661-0.234-0.938-0.372c-0.275-0.138-0.46-0.252-0.552-0.346l-0.165-0.109c0.128-0.203,0.289-0.488,0.482-0.855
		c0.192-0.367,0.455-1.126,0.786-2.277c0.331-1.149,0.496-2.312,0.496-3.489c0-0.534-0.064-1.058-0.193-1.572
		c-0.129-0.515-0.284-0.943-0.469-1.284c-0.184-0.34-0.372-0.644-0.565-0.911c-0.192-0.266-0.354-0.464-0.482-0.593l-0.193-0.193
		v-0.028c-0.055-0.442-0.083-0.902-0.083-1.38c0-1.232,0.437-2.285,1.31-3.159c0.874-0.873,1.927-1.311,3.159-1.311
		s2.285,0.438,3.161,1.311c0.872,0.874,1.31,1.927,1.31,3.159c0,1.215-0.165,2.351-0.497,3.408
		c-0.331,1.058-0.661,1.817-0.993,2.277L28.511,19.3c0,0.571,0.168,1.045,0.51,1.421c0.341,0.378,0.755,0.677,1.241,0.897
		c0.487,0.22,0.974,0.446,1.463,0.675c0.487,0.231,0.9,0.558,1.241,0.98C33.306,23.697,33.477,24.229,33.477,24.874z"/>
</g>
</svg>
