<?xml version="1.0" encoding="utf-8"?>
<!-- Generator: Adobe Illustrator 16.0.0, SVG Export Plug-In . SVG Version: 6.00 Build 0)  -->
<!DOCTYPE svg PUBLIC "-//W3C//DTD SVG 1.1//EN" "http://www.w3.org/Graphics/SVG/1.1/DTD/svg11.dtd">
<svg version="1.1" id="Layer_1" xmlns="http://www.w3.org/2000/svg" xmlns:xlink="http://www.w3.org/1999/xlink" x="0px" y="0px"
	 width="25.017px" height="25.017px" viewBox="0 0 25.017 25.017" enable-background="new 0 0 25.017 25.017" xml:space="preserve">
<g>
	<path fill="#FFFFFF" d="M4.369,4.13c2.245-2.245,4.956-3.368,8.132-3.368s5.887,1.123,8.132,3.368s3.368,4.956,3.368,8.132
		s-1.123,5.888-3.368,8.132c-2.245,2.246-4.956,3.368-8.132,3.368s-5.888-1.122-8.132-3.368c-2.246-2.245-3.368-4.956-3.368-8.132
		S2.123,6.375,4.369,4.13z M17.292,19.45v-2.476c-0.905,0.266-1.704,0.399-2.396,0.399c-0.834,0-1.362-0.146-1.584-0.439
		c-0.222-0.293-0.333-0.892-0.333-1.797v-3.833h3.833V7.95H12.98V4.116h-2.396c-0.16,1.438-0.537,2.458-1.131,3.062
		C8.858,7.781,7.958,8.287,6.751,8.695v2.422h2.422v4.978c0,1.438,0.337,2.516,1.012,3.234c0.674,0.719,1.766,1.078,3.274,1.078
		c0.709,0,1.384-0.08,2.023-0.24c0.639-0.16,1.1-0.319,1.384-0.479L17.292,19.45z"/>
</g>
</svg>
