<?xml version="1.0" encoding="utf-8"?>
<!-- Generator: Adobe Illustrator 16.0.0, SVG Export Plug-In . SVG Version: 6.00 Build 0)  -->
<!DOCTYPE svg PUBLIC "-//W3C//DTD SVG 1.1//EN" "http://www.w3.org/Graphics/SVG/1.1/DTD/svg11.dtd">
<svg version="1.1" id="Layer_1" xmlns="http://www.w3.org/2000/svg" xmlns:xlink="http://www.w3.org/1999/xlink" x="0px" y="0px"
	 width="44px" height="44px" viewBox="0 0 44 44" enable-background="new 0 0 44 44" xml:space="preserve">
<circle fill="#FFFFFF" cx="22" cy="22" r="22"/>
<g>
	<path d="M97.204,26.998v0.994c0,0.146-0.047,0.268-0.138,0.361c-0.092,0.09-0.212,0.135-0.358,0.135H82.801
		c-0.146,0-0.266-0.045-0.358-0.135c-0.092-0.094-0.138-0.215-0.138-0.361v-0.994c0-0.625,0.17-1.15,0.51-1.586
		c0.341-0.432,0.755-0.762,1.242-0.992c0.486-0.229,0.975-0.455,1.463-0.676c0.486-0.221,0.9-0.52,1.241-0.897
		c0.34-0.377,0.511-0.85,0.511-1.421c-0.148-0.166-0.331-0.409-0.553-0.731c-0.22-0.321-0.515-1.033-0.883-2.139
		c-0.368-1.103-0.551-2.261-0.551-3.476c0-1.232,0.436-2.285,1.311-3.159c0.873-0.873,1.926-1.311,3.158-1.311
		s2.285,0.438,3.16,1.311c0.873,0.874,1.311,1.927,1.311,3.159c0,1.214-0.166,2.35-0.497,3.407
		c-0.331,1.058-0.663,1.817-0.993,2.276l-0.496,0.662c0,0.571,0.17,1.044,0.51,1.421c0.34,0.377,0.755,0.676,1.241,0.897
		c0.487,0.221,0.975,0.447,1.463,0.676c0.486,0.23,0.901,0.557,1.241,0.98S97.204,26.355,97.204,26.998z M106.144,21.041v0.993
		c0,0.146-0.046,0.266-0.138,0.358c-0.094,0.093-0.212,0.138-0.358,0.138H96.1c-0.35-0.11-0.661-0.234-0.938-0.372
		c-0.275-0.138-0.46-0.252-0.552-0.346l-0.165-0.109c0.129-0.203,0.289-0.488,0.482-0.855c0.192-0.367,0.455-1.126,0.786-2.277
		c0.331-1.149,0.496-2.312,0.496-3.489c0-0.534-0.064-1.058-0.193-1.572c-0.129-0.515-0.284-0.943-0.469-1.284
		c-0.184-0.34-0.372-0.644-0.565-0.911c-0.192-0.266-0.354-0.464-0.482-0.593l-0.193-0.193V10.5
		c-0.055-0.442-0.082-0.902-0.082-1.38c0-1.232,0.436-2.285,1.31-3.159c0.874-0.873,1.927-1.311,3.159-1.311
		s2.285,0.438,3.161,1.311c0.872,0.874,1.31,1.927,1.31,3.159c0,1.215-0.165,2.351-0.497,3.408
		c-0.331,1.058-0.661,1.817-0.993,2.277l-0.496,0.661c0,0.571,0.168,1.045,0.51,1.421c0.341,0.378,0.755,0.677,1.241,0.897
		c0.487,0.22,0.974,0.446,1.463,0.675c0.487,0.231,0.9,0.558,1.241,0.98C105.973,19.864,106.144,20.396,106.144,21.041z"/>
</g>
<g>
	<path d="M108.255,57.642c0.33,0.445,0.494,0.961,0.494,1.543c0,0.738-0.252,1.359-0.757,1.863
		c-0.505,0.506-1.126,0.758-1.862,0.758H86.213c-1.047,0-1.824-0.467-2.328-1.398c-0.485-0.932-0.438-1.824,0.146-2.68l7.948-11.702
		v-8.852c0-0.155,0.049-0.281,0.146-0.379c0.096-0.098,0.223-0.146,0.377-0.146h7.338c0.155,0,0.282,0.049,0.378,0.146
		c0.099,0.098,0.146,0.224,0.146,0.379v8.852L108.255,57.642z M91.542,57.001c0.407,0.406,0.902,0.611,1.485,0.611
		c0.582,0,1.076-0.205,1.484-0.611c0.407-0.408,0.611-0.902,0.611-1.484s-0.204-1.078-0.611-1.484
		c-0.408-0.408-0.902-0.613-1.484-0.613c-0.583,0-1.078,0.205-1.485,0.613c-0.407,0.406-0.612,0.902-0.612,1.484
		S91.135,56.593,91.542,57.001z M96.638,51.905c0.311,0.311,0.679,0.467,1.105,0.467s0.796-0.156,1.106-0.467
		s0.466-0.678,0.466-1.105c0-0.427-0.155-0.796-0.466-1.106s-0.68-0.466-1.106-0.466s-0.795,0.155-1.105,0.466
		c-0.312,0.311-0.466,0.68-0.466,1.106C96.172,51.228,96.326,51.595,96.638,51.905z"/>
</g>
<g>
	<path d="M33.913,21.517c0.135,0.193,0.135,0.386,0,0.579c-0.154,0.212-0.366,0.501-0.636,0.868
		c-0.271,0.367-0.84,1.012-1.708,1.939c-0.868,0.926-1.761,1.74-2.677,2.444c-0.916,0.705-2.049,1.346-3.399,1.925
		c-1.351,0.578-2.682,0.868-3.993,0.868c-1.312,0-2.633-0.275-3.964-0.825c-1.331-0.55-2.484-1.22-3.458-2.011
		c-0.974-0.791-1.852-1.582-2.633-2.373c-0.781-0.79-1.365-1.466-1.75-2.025l-0.607-0.81c-0.135-0.193-0.135-0.386,0-0.579
		c0.154-0.212,0.366-0.501,0.636-0.868c0.27-0.366,0.839-1.013,1.708-1.939c0.868-0.926,1.76-1.741,2.676-2.445
		c0.916-0.704,2.049-1.346,3.4-1.924c1.35-0.579,2.681-0.868,3.993-0.868c1.312,0,2.633,0.275,3.965,0.825
		c1.33,0.55,2.478,1.215,3.442,1.997c0.964,0.781,1.833,1.558,2.604,2.329c0.771,0.772,1.35,1.428,1.736,1.968l0.607,0.839
		L33.913,21.517z M21.5,26.493c1.292,0,2.396-0.458,3.312-1.374s1.375-2.021,1.375-3.313c0-1.292-0.459-2.396-1.375-3.313
		c-0.916-0.916-2.021-1.375-3.312-1.375c-1.292,0-2.397,0.458-3.313,1.375c-0.917,0.917-1.375,2.021-1.375,3.313
		c0,1.312,0.453,2.42,1.36,3.328C19.079,26.04,20.188,26.493,21.5,26.493z"/>
</g>
</svg>
