<?xml version="1.0" encoding="utf-8"?>
<!-- Generator: Adobe Illustrator 16.0.0, SVG Export Plug-In . SVG Version: 6.00 Build 0)  -->
<!DOCTYPE svg PUBLIC "-//W3C//DTD SVG 1.1//EN" "http://www.w3.org/Graphics/SVG/1.1/DTD/svg11.dtd">
<svg version="1.1" xmlns="http://www.w3.org/2000/svg" xmlns:xlink="http://www.w3.org/1999/xlink" x="0px" y="0px" width="25px"
	 height="25px" viewBox="0 0 25 25" enable-background="new 0 0 25 25" xml:space="preserve">
<g id="Layer_1">
	<circle fill="#00B490" cx="12.513" cy="12.498" r="12.404"/>
	<g>
		<path fill="#FFFFFF" d="M14.727,17.357h0.624c0.202,0,0.372-0.033,0.508-0.1c0.137-0.064,0.242-0.146,0.319-0.246
			s0.13-0.212,0.159-0.338c0.03-0.123,0.045-0.246,0.045-0.369v-2.17c0-0.314,0.056-0.57,0.167-0.766
			c0.111-0.197,0.245-0.353,0.402-0.47c0.157-0.118,0.32-0.198,0.489-0.243c0.17-0.043,0.308-0.074,0.414-0.092
			c-0.111-0.009-0.25-0.038-0.417-0.089c-0.167-0.05-0.329-0.133-0.486-0.249s-0.291-0.266-0.402-0.454
			c-0.111-0.187-0.167-0.417-0.167-0.694V8.647c0-0.131-0.015-0.258-0.045-0.382c-0.029-0.124-0.082-0.237-0.159-0.338
			c-0.077-0.101-0.183-0.18-0.319-0.24c-0.136-0.058-0.306-0.088-0.508-0.088h-0.624V6h1.517c0.342,0,0.66,0.045,0.955,0.136
			c0.295,0.09,0.553,0.222,0.773,0.393c0.219,0.172,0.392,0.388,0.516,0.646c0.125,0.258,0.188,0.554,0.188,0.885v2.589
			c0,0.189,0.041,0.353,0.123,0.486c0.082,0.135,0.188,0.244,0.319,0.326s0.276,0.14,0.433,0.173c0.156,0.034,0.307,0.05,0.45,0.05
			v1.771c-0.144,0-0.294,0.02-0.45,0.061s-0.301,0.104-0.433,0.189c-0.132,0.088-0.237,0.2-0.319,0.336
			c-0.082,0.14-0.123,0.311-0.123,0.519v2.329c0,0.338-0.062,0.635-0.188,0.891c-0.124,0.256-0.297,0.473-0.516,0.65
			c-0.221,0.178-0.479,0.309-0.773,0.396c-0.295,0.087-0.613,0.131-0.955,0.131h-1.517V17.357z"/>
	</g>
	<g>
		<path fill="#FFFFFF" d="M10.273,7.599H9.649c-0.202,0-0.372,0.034-0.508,0.1C9.005,7.763,8.899,7.846,8.822,7.945
			c-0.077,0.101-0.13,0.212-0.159,0.337c-0.03,0.124-0.045,0.247-0.045,0.371v2.169c0,0.314-0.056,0.57-0.167,0.767
			s-0.245,0.352-0.402,0.469c-0.157,0.118-0.32,0.198-0.489,0.244c-0.17,0.044-0.308,0.074-0.414,0.092
			c0.111,0.009,0.25,0.038,0.417,0.089s0.329,0.134,0.486,0.249c0.157,0.115,0.291,0.266,0.402,0.453
			c0.111,0.187,0.167,0.418,0.167,0.694v2.431c0,0.132,0.015,0.26,0.045,0.383c0.029,0.124,0.082,0.236,0.159,0.338
			c0.077,0.101,0.183,0.182,0.319,0.24c0.136,0.06,0.306,0.088,0.508,0.088h0.624v1.6H8.757c-0.342,0-0.66-0.045-0.955-0.135
			c-0.295-0.091-0.553-0.223-0.773-0.395c-0.219-0.173-0.392-0.388-0.516-0.646c-0.125-0.259-0.188-0.553-0.188-0.885v-2.59
			c0-0.19-0.041-0.352-0.123-0.486s-0.188-0.243-0.319-0.325s-0.276-0.14-0.433-0.175C5.294,13.289,5.144,13.272,5,13.272v-1.771
			c0.144,0,0.294-0.02,0.45-0.061c0.156-0.041,0.301-0.104,0.433-0.189c0.132-0.088,0.237-0.2,0.319-0.337
			c0.082-0.139,0.123-0.31,0.123-0.518V8.069c0-0.339,0.062-0.636,0.188-0.892C6.637,6.922,6.81,6.706,7.028,6.528
			c0.221-0.178,0.479-0.31,0.773-0.398C8.097,6.044,8.415,6,8.757,6h1.517V7.599z"/>
	</g>
</g>
<g id="branding" display="none">
	<g display="inline">
		<path fill="#FFFFFF" d="M17.111,13.794c-0.049,0.11-0.135,0.165-0.256,0.165h-3.385l1.896,3.868
			c0.09,0.161,0.049,0.281-0.121,0.36l-1.219,0.618c-0.16,0.09-0.281,0.05-0.361-0.121l-1.882-3.883l-2.317,2.333
			c-0.07,0.051-0.136,0.075-0.196,0.075c-0.05,0-0.085-0.005-0.105-0.015C9.055,17.145,9,17.06,9,16.939V6.103
			c0-0.12,0.055-0.206,0.166-0.255c0.121-0.041,0.221-0.021,0.301,0.06l7.586,7.585C17.133,13.573,17.152,13.673,17.111,13.794z"/>
	</g>
</g>
<g id="cursor" display="none">
	<g display="inline">
		<path fill="#FFFFFF" d="M18.188,6c0.222,0,0.412,0.08,0.572,0.241C18.919,6.401,19,6.592,19,6.812v8.938
			c0,0.222-0.081,0.412-0.24,0.572c-0.16,0.16-0.351,0.24-0.572,0.24h-4.062v0.781l2.271,1.145c0.109,0.03,0.166,0.111,0.166,0.24
			c0,0.081-0.025,0.146-0.075,0.196S16.371,19,16.291,19H8.708c-0.141,0-0.23-0.07-0.271-0.21c-0.021-0.14,0.03-0.241,0.15-0.302
			l2.287-1.145v-0.781H6.812c-0.221,0-0.411-0.08-0.572-0.24C6.08,16.162,6,15.972,6,15.75V6.812c0-0.22,0.08-0.411,0.241-0.572
			C6.401,6.08,6.592,6,6.812,6H18.188z M17.375,14.938V7.625h-9.75v7.312H17.375z"/>
	</g>
</g>
<g id="phone" display="none">
	<g display="inline">
		<path fill="#FFFFFF" d="M16.125,5c0.237,0,0.443,0.086,0.616,0.259C16.913,5.432,17,5.638,17,5.875v12.25
			c0,0.238-0.087,0.443-0.259,0.616C16.568,18.914,16.362,19,16.125,19h-7c-0.238,0-0.443-0.086-0.616-0.259
			c-0.173-0.173-0.259-0.378-0.259-0.616V5.875c0-0.237,0.086-0.443,0.259-0.616C8.682,5.086,8.887,5,9.125,5H16.125z M15.542,15.5
			V7.333H9.708V15.5H15.542z M12.009,17.866c0.173,0.173,0.378,0.259,0.616,0.259c0.237,0,0.443-0.086,0.616-0.259
			c0.172-0.173,0.259-0.378,0.259-0.616c0-0.237-0.087-0.443-0.259-0.616c-0.173-0.172-0.379-0.259-0.616-0.259
			c-0.238,0-0.443,0.087-0.616,0.259c-0.173,0.173-0.259,0.379-0.259,0.616C11.75,17.488,11.836,17.693,12.009,17.866z"/>
	</g>
</g>
<g id="computer" display="none">
	<g display="inline">
		<path fill="#FFFFFF" d="M14.125,17.719v0.521c0,0.078-0.024,0.142-0.072,0.188c-0.048,0.049-0.11,0.072-0.188,0.072H6.573
			c-0.077,0-0.14-0.023-0.188-0.072c-0.048-0.047-0.072-0.11-0.072-0.188v-0.521c0-0.327,0.089-0.604,0.268-0.832
			c0.178-0.226,0.396-0.401,0.651-0.521c0.256-0.121,0.512-0.239,0.767-0.354c0.255-0.116,0.472-0.273,0.651-0.471
			c0.179-0.196,0.268-0.446,0.268-0.745c-0.077-0.086-0.173-0.215-0.289-0.383c-0.116-0.17-0.271-0.543-0.463-1.121
			c-0.193-0.579-0.29-1.187-0.29-1.823c0-0.646,0.229-1.199,0.687-1.657s1.011-0.687,1.657-0.687s1.199,0.229,1.657,0.687
			s0.687,1.011,0.687,1.657c0,0.637-0.087,1.231-0.26,1.787c-0.174,0.555-0.348,0.953-0.521,1.193l-0.26,0.347
			c0,0.299,0.089,0.549,0.268,0.745c0.179,0.197,0.395,0.354,0.651,0.471c0.255,0.115,0.511,0.233,0.767,0.354
			c0.256,0.119,0.473,0.291,0.651,0.514S14.125,17.381,14.125,17.719z M18.812,14.594v0.521c0,0.078-0.024,0.142-0.072,0.188
			c-0.048,0.049-0.11,0.072-0.188,0.072h-5.006c-0.184-0.058-0.347-0.123-0.491-0.195c-0.145-0.072-0.241-0.132-0.29-0.181
			l-0.087-0.058c0.068-0.107,0.152-0.256,0.254-0.449s0.238-0.591,0.412-1.193c0.174-0.602,0.26-1.213,0.26-1.83
			c0-0.279-0.033-0.555-0.101-0.825s-0.149-0.494-0.246-0.673c-0.097-0.178-0.195-0.337-0.297-0.477
			c-0.101-0.14-0.186-0.244-0.253-0.311l-0.101-0.102V9.067c-0.029-0.231-0.043-0.472-0.043-0.723c0-0.646,0.229-1.199,0.688-1.657
			C13.708,6.229,14.26,6,14.906,6s1.198,0.229,1.656,0.687s0.688,1.011,0.688,1.657c0,0.637-0.087,1.232-0.26,1.787
			c-0.174,0.555-0.348,0.953-0.521,1.194l-0.26,0.347c0,0.299,0.089,0.547,0.267,0.745c0.179,0.197,0.396,0.354,0.651,0.47
			c0.256,0.115,0.511,0.233,0.767,0.354c0.255,0.119,0.473,0.291,0.651,0.514S18.812,14.256,18.812,14.594z"/>
	</g>
</g>
</svg>
