<?xml version="1.0" encoding="utf-8"?>
<!-- Generator: Adobe Illustrator 16.0.0, SVG Export Plug-In . SVG Version: 6.00 Build 0)  -->
<!DOCTYPE svg PUBLIC "-//W3C//DTD SVG 1.1//EN" "http://www.w3.org/Graphics/SVG/1.1/DTD/svg11.dtd">
<svg version="1.1" xmlns="http://www.w3.org/2000/svg" xmlns:xlink="http://www.w3.org/1999/xlink" x="0px" y="0px" width="25px"
	 height="25px" viewBox="0 0 25 25" enable-background="new 0 0 25 25" xml:space="preserve">
<g id="Layer_1">
	<circle fill="#00B490" cx="12.513" cy="12.498" r="12.404"/>
	<g>
		<path fill="#FFFFFF" d="M18.188,6c0.222,0,0.412,0.08,0.572,0.241C18.919,6.401,19,6.592,19,6.812v8.938
			c0,0.222-0.081,0.412-0.24,0.572c-0.16,0.16-0.351,0.24-0.572,0.24h-4.062v0.781l2.271,1.145c0.109,0.03,0.166,0.111,0.166,0.24
			c0,0.081-0.025,0.146-0.075,0.196S16.371,19,16.291,19H8.708c-0.141,0-0.23-0.07-0.271-0.21c-0.021-0.14,0.03-0.241,0.15-0.302
			l2.287-1.145v-0.781H6.812c-0.221,0-0.411-0.08-0.572-0.24C6.08,16.162,6,15.972,6,15.75V6.812c0-0.22,0.08-0.411,0.241-0.572
			C6.401,6.08,6.592,6,6.812,6H18.188z M17.375,14.938V7.625h-9.75v7.312H17.375z"/>
	</g>
</g>
<g id="Layer_3" display="none">
	<g display="inline">
		<path fill="#FFFFFF" d="M16.125,5c0.237,0,0.443,0.086,0.616,0.259C16.913,5.432,17,5.638,17,5.875v12.25
			c0,0.238-0.087,0.443-0.259,0.616C16.568,18.914,16.362,19,16.125,19h-7c-0.238,0-0.443-0.086-0.616-0.259
			c-0.173-0.173-0.259-0.378-0.259-0.616V5.875c0-0.237,0.086-0.443,0.259-0.616C8.682,5.086,8.887,5,9.125,5H16.125z M15.542,15.5
			V7.333H9.708V15.5H15.542z M12.009,17.866c0.173,0.173,0.378,0.259,0.616,0.259c0.237,0,0.443-0.086,0.616-0.259
			c0.172-0.173,0.259-0.378,0.259-0.616c0-0.237-0.087-0.443-0.259-0.616c-0.173-0.172-0.379-0.259-0.616-0.259
			c-0.238,0-0.443,0.087-0.616,0.259c-0.173,0.173-0.259,0.379-0.259,0.616C11.75,17.488,11.836,17.693,12.009,17.866z"/>
	</g>
</g>
<g id="Layer_2" display="none">
	<g display="inline">
		<path fill="#FFFFFF" d="M14.125,17.719v0.521c0,0.078-0.024,0.142-0.072,0.188c-0.048,0.049-0.11,0.072-0.188,0.072H6.573
			c-0.077,0-0.14-0.023-0.188-0.072c-0.048-0.047-0.072-0.11-0.072-0.188v-0.521c0-0.327,0.089-0.604,0.268-0.832
			c0.178-0.226,0.396-0.401,0.651-0.521c0.256-0.121,0.512-0.239,0.767-0.354c0.255-0.116,0.472-0.273,0.651-0.471
			c0.179-0.196,0.268-0.446,0.268-0.745c-0.077-0.086-0.173-0.215-0.289-0.383c-0.116-0.17-0.271-0.543-0.463-1.121
			c-0.193-0.579-0.29-1.187-0.29-1.823c0-0.646,0.229-1.199,0.687-1.657s1.011-0.687,1.657-0.687s1.199,0.229,1.657,0.687
			s0.687,1.011,0.687,1.657c0,0.637-0.087,1.231-0.26,1.787c-0.174,0.555-0.348,0.953-0.521,1.193l-0.26,0.347
			c0,0.299,0.089,0.549,0.268,0.745c0.179,0.197,0.395,0.354,0.651,0.471c0.255,0.115,0.511,0.233,0.767,0.354
			c0.256,0.119,0.473,0.291,0.651,0.514S14.125,17.381,14.125,17.719z M18.812,14.594v0.521c0,0.078-0.024,0.142-0.072,0.188
			c-0.048,0.049-0.11,0.072-0.188,0.072h-5.006c-0.184-0.058-0.347-0.123-0.491-0.195c-0.145-0.072-0.241-0.132-0.29-0.181
			l-0.087-0.058c0.068-0.107,0.152-0.256,0.254-0.449s0.238-0.591,0.412-1.193c0.174-0.602,0.26-1.213,0.26-1.83
			c0-0.279-0.033-0.555-0.101-0.825s-0.149-0.494-0.246-0.673c-0.097-0.178-0.195-0.337-0.297-0.477
			c-0.101-0.14-0.186-0.244-0.253-0.311l-0.101-0.102V9.067c-0.029-0.231-0.043-0.472-0.043-0.723c0-0.646,0.229-1.199,0.688-1.657
			C13.708,6.229,14.26,6,14.906,6s1.198,0.229,1.656,0.687s0.688,1.011,0.688,1.657c0,0.637-0.087,1.232-0.26,1.787
			c-0.174,0.555-0.348,0.953-0.521,1.194l-0.26,0.347c0,0.299,0.089,0.547,0.267,0.745c0.179,0.197,0.396,0.354,0.651,0.47
			c0.256,0.115,0.511,0.233,0.767,0.354c0.255,0.119,0.473,0.291,0.651,0.514S18.812,14.256,18.812,14.594z"/>
	</g>
</g>
</svg>
