<?xml version="1.0" encoding="utf-8"?>
<!-- Generator: Adobe Illustrator 16.0.0, SVG Export Plug-In . SVG Version: 6.00 Build 0)  -->
<!DOCTYPE svg PUBLIC "-//W3C//DTD SVG 1.1//EN" "http://www.w3.org/Graphics/SVG/1.1/DTD/svg11.dtd">
<svg version="1.1" id="Layer_1" xmlns="http://www.w3.org/2000/svg" xmlns:xlink="http://www.w3.org/1999/xlink" x="0px" y="0px"
	 width="25px" height="25px" viewBox="0 0 25 25" enable-background="new 0 0 25 25" xml:space="preserve">
<circle fill="#00B490" cx="12.513" cy="12.498" r="12.404"/>
<g id="branding" display="none">
	<g display="inline">
		<path fill="#FFFFFF" d="M17.111,13.794c-0.049,0.11-0.135,0.165-0.256,0.165h-3.385l1.896,3.868c0.09,0.161,0.049,0.28-0.121,0.36
			l-1.22,0.617c-0.159,0.09-0.28,0.051-0.36-0.121l-1.882-3.883l-2.317,2.333c-0.07,0.052-0.136,0.075-0.196,0.075
			c-0.05,0-0.085-0.005-0.105-0.016C9.055,17.145,9,17.061,9,16.939V6.103c0-0.12,0.055-0.206,0.166-0.255
			c0.121-0.041,0.221-0.021,0.301,0.06l7.586,7.585C17.133,13.573,17.152,13.673,17.111,13.794z"/>
	</g>
</g>
<g id="cursor" display="none">
	<g display="inline">
		<path fill="#FFFFFF" d="M18.188,6C18.41,6,18.6,6.08,18.76,6.241C18.919,6.401,19,6.592,19,6.812v8.938
			c0,0.223-0.081,0.412-0.24,0.572c-0.16,0.16-0.351,0.24-0.572,0.24h-4.062v0.78l2.271,1.146c0.109,0.029,0.166,0.111,0.166,0.24
			c0,0.08-0.024,0.146-0.074,0.195C16.438,18.975,16.371,19,16.291,19H8.708c-0.141,0-0.23-0.07-0.271-0.21
			c-0.021-0.14,0.03-0.241,0.15-0.302l2.287-1.146v-0.78H6.812c-0.221,0-0.411-0.08-0.572-0.24C6.08,16.162,6,15.973,6,15.75V6.812
			c0-0.22,0.08-0.411,0.241-0.572C6.401,6.08,6.592,6,6.812,6H18.188z M17.375,14.938V7.625h-9.75v7.312H17.375L17.375,14.938z"/>
	</g>
</g>
<g id="phone" display="none">
	<g display="inline">
		<path fill="#FFFFFF" d="M16.125,5c0.236,0,0.443,0.086,0.616,0.259C16.913,5.432,17,5.638,17,5.875v12.25
			c0,0.238-0.087,0.443-0.259,0.616C16.568,18.914,16.361,19,16.125,19h-7c-0.238,0-0.443-0.086-0.616-0.259
			c-0.173-0.173-0.259-0.378-0.259-0.616V5.875c0-0.237,0.086-0.443,0.259-0.616C8.682,5.086,8.887,5,9.125,5H16.125z M15.542,15.5
			V7.333H9.708V15.5H15.542z M12.009,17.866c0.173,0.173,0.378,0.259,0.616,0.259c0.237,0,0.443-0.086,0.616-0.259
			c0.172-0.173,0.259-0.378,0.259-0.616c0-0.236-0.087-0.443-0.259-0.616c-0.173-0.172-0.379-0.259-0.616-0.259
			c-0.238,0-0.443,0.087-0.616,0.259c-0.173,0.173-0.259,0.38-0.259,0.616C11.75,17.488,11.836,17.693,12.009,17.866z"/>
	</g>
</g>
<g id="computer" display="none">
	<g display="inline">
		<path fill="#FFFFFF" d="M14.125,17.719v0.521c0,0.078-0.023,0.142-0.072,0.188c-0.048,0.049-0.109,0.072-0.188,0.072H6.573
			c-0.077,0-0.14-0.023-0.188-0.072c-0.048-0.047-0.072-0.109-0.072-0.188v-0.521c0-0.326,0.089-0.604,0.268-0.832
			c0.178-0.226,0.396-0.4,0.651-0.521c0.256-0.121,0.512-0.239,0.767-0.354s0.472-0.272,0.651-0.471
			c0.179-0.195,0.268-0.445,0.268-0.745c-0.077-0.086-0.173-0.215-0.289-0.383c-0.116-0.17-0.271-0.543-0.463-1.121
			c-0.193-0.579-0.29-1.187-0.29-1.823c0-0.646,0.229-1.199,0.687-1.657s1.011-0.687,1.657-0.687s1.199,0.229,1.657,0.687
			s0.687,1.011,0.687,1.657c0,0.637-0.087,1.231-0.26,1.787c-0.174,0.555-0.348,0.953-0.521,1.193l-0.26,0.347
			c0,0.3,0.089,0.55,0.268,0.745c0.179,0.197,0.395,0.354,0.651,0.471c0.255,0.115,0.511,0.233,0.767,0.354
			c0.256,0.118,0.473,0.291,0.65,0.514C14.038,17.104,14.125,17.381,14.125,17.719z M18.812,14.594v0.521
			c0,0.078-0.024,0.142-0.072,0.188c-0.049,0.049-0.11,0.072-0.188,0.072h-5.006c-0.185-0.059-0.347-0.123-0.491-0.195
			s-0.241-0.132-0.29-0.181l-0.087-0.058c0.068-0.107,0.152-0.256,0.254-0.449s0.238-0.592,0.412-1.193
			c0.174-0.602,0.26-1.213,0.26-1.83c0-0.279-0.033-0.555-0.101-0.825s-0.149-0.494-0.246-0.673
			c-0.097-0.178-0.194-0.337-0.297-0.477c-0.101-0.14-0.186-0.244-0.253-0.311l-0.101-0.102V9.067
			c-0.029-0.231-0.043-0.472-0.043-0.723c0-0.646,0.229-1.199,0.688-1.657C13.708,6.229,14.26,6,14.906,6
			c0.646,0,1.197,0.229,1.656,0.687c0.457,0.458,0.688,1.011,0.688,1.657c0,0.637-0.087,1.232-0.26,1.787
			c-0.174,0.555-0.348,0.953-0.521,1.194l-0.26,0.347c0,0.299,0.089,0.547,0.268,0.745c0.178,0.197,0.396,0.354,0.65,0.47
			c0.256,0.115,0.512,0.233,0.768,0.354c0.254,0.118,0.473,0.291,0.65,0.514C18.723,13.979,18.812,14.256,18.812,14.594z"/>
	</g>
</g>
<g>
	<path fill="#FFFFFF" d="M17.763,7.167c0.204,0,0.38,0.074,0.528,0.222c0.147,0.148,0.222,0.324,0.222,0.528v6
		c0,0.204-0.074,0.381-0.222,0.528c-0.148,0.147-0.324,0.222-0.528,0.222h-1.25v-2.5h-8v2.5h-1.25c-0.204,0-0.38-0.074-0.528-0.222
		s-0.222-0.324-0.222-0.528v-6c0-0.204,0.074-0.379,0.222-0.528c0.148-0.148,0.324-0.222,0.528-0.222H17.763z M9.513,13.166v5.75
		c0,0.074,0.023,0.135,0.069,0.182c0.046,0.046,0.106,0.068,0.181,0.068h5.5c0.074,0,0.134-0.022,0.181-0.068
		c0.046-0.047,0.069-0.107,0.069-0.182v-5.75H9.513z M15.734,9.944c0.148,0.148,0.324,0.222,0.528,0.222s0.38-0.074,0.528-0.222
		c0.147-0.148,0.222-0.324,0.222-0.528s-0.074-0.379-0.222-0.528c-0.148-0.148-0.324-0.222-0.528-0.222s-0.38,0.074-0.528,0.222
		c-0.147,0.148-0.222,0.324-0.222,0.528S15.587,9.796,15.734,9.944z"/>
</g>
</svg>
